<?xml version="1.0" encoding="UTF-8"?><svg xmlns="http://www.w3.org/2000/svg" viewBox="0 0 100 100"><g id="a"><rect x="0" width="100" height="100" fill="#de4e2a"/></g><g id="b"><g><path d="M50.213,55.779l-.836-1.052c-.999-1.256-2.437-2.087-4.024-2.323h0c-1.703-.254-3.229-1.19-4.227-2.593l-14.876-20.91c-1.27-1.786-3.779-2.14-5.494-.776h0c-1.715,1.364-1.936,3.887-.483,5.528l17.016,19.209c.744,.84,1.245,1.854,1.465,2.934" fill="none" stroke="#f8f2e2" stroke-linecap="round" stroke-linejoin="round" stroke-width="2"/><path d="M51.433,20.557s-3.674,3.774,.012,8.367c3.686,4.593,.013,9.088,.013,9.088" fill="none" stroke="#f8f2e2" stroke-linecap="round" stroke-linejoin="round" stroke-width="2"/><path d="M42.534,27.082s-2.248,2.309,.007,5.119c2.255,2.81,.008,5.56,.008,5.56" fill="none" stroke="#f8f2e2" stroke-linecap="round" stroke-linejoin="round" stroke-width="2"/><path d="M60.938,27.082s-2.248,2.309,.007,5.119c2.255,2.81,.008,5.56,.008,5.56" fill="none" stroke="#f8f2e2" stroke-linecap="round" stroke-linejoin="round" stroke-width="2"/><g><path d="M82.569,51.98s.029,19.791-21.573,25.664c-.555,.151-1.122,1.126-1.706,1.252-2.57,.556-5.423,.866-8.592,.871-2.905,.004-5.546-.25-7.947-.714-.555-.107-1.097-1.062-1.627-1.191-22.348-5.461-22.377-25.789-22.377-25.789" fill="none" stroke="#f8f2e2" stroke-linecap="round" stroke-linejoin="round" stroke-width="2"/><path d="M32.555,48.319c-8.413,.804-13.934,2.145-13.932,3.656,.003,2.43,14.293,4.379,31.917,4.354,17.624-.025,31.908-2.016,31.905-4.446-.003-2.43-14.293-4.379-31.917-4.354-3.631,.005-7.12,.094-10.372,.253" fill="none" stroke="#f8f2e2" stroke-linecap="round" stroke-linejoin="round" stroke-width="2"/><path d="M36.165,52.361c-5.366,.485-9.903,1.178-12.996,1.871" fill="none" stroke="#f8f2e2" stroke-linecap="round" stroke-linejoin="round" stroke-width="2"/><path d="M77.723,53.977c-5.755-1.144-16.15-2.295-27.065-2.279-2.212,.003-4.384,.053-6.489,.139" fill="none" stroke="#f8f2e2" stroke-linecap="round" stroke-linejoin="round" stroke-width="2"/></g></g></g></svg>